<?xml version="1.0" encoding="UTF-8"?>
<svg version="1.1" viewBox="0 0 2000 820" width="499" height="205" xmlns="http://www.w3.org/2000/svg">
<path transform="translate(0)" d="m0 0h2e3v820h-2e3z" fill="#FDFDFD"/>
<path transform="translate(1480,18)" d="m0 0h20l12 4 10 7 7 7 7 12 3 12v12l-3 12-6 11-9 10-108 108 2 5 5 5 15 14 89 89v2h2l9 14 4 13v13l-4 14-6 10-10 10-12 6-11 3h-11l-13-3-13-8-115-115-4 1-109 109-10 7-12 5-8 1h-9l-9-2-9-4-6-4-8-7-7-11-3-8-1-7v-13l4-14 8-11 8-10 5-5h2l2-4 20-20h2l2-4h2l2-4h2l2-4 4-4h2l2-4 16-16h2l2-4 31-31 2-1-1-5-109-109-7-12-2-5-1-6v-15l4-13 6-10 5-6 13-8 8-3 6-1h13l12 3 10 6 11 9 102 102 3 1 2-4 80-80h2l2-4 23-23 12-9 11-5z" fill="#840929"/>
<path transform="translate(1e3)" d="m0 0h57l25 5 23 6 24 9 5 3-4 7-26 32-11 14-9 11-3 4-7-1-18-5-22-3h-15l-22 3-15 5-15 8-10 8-12 11-5 4-5 5-16 17-10 11-11 14-11 12-18 22-13 16-10 13-8 10-10 13-1 2h-2l-2 4-10 12-10 13-7 9-11 13-11 14-7 8-4 6-15 15-1 2h-2l-2 4h-2l-2 4-8 7-10 9h-2v2l-23 15-21 10-18 5-22 3h-38l-29-4-25-6-21-7-18-8-19-10-21-14-14-12-3-2 1-4 11-13 9-11 12-14 9-11 8-10 5 2 8 7 22 14 16 8 13 6 15 5 15 3 26 2 15-3 16-7 11-8 11-9 10-9 16-16 9-11 15-16 8-10 1-2h2l2-4 9-11 8-11 13-16 11-14 10-13 22-28 10-12 7-9 12-14 9-11 14-15 15-16 8-8 8-7 12-11 14-10 14-9 19-9 19-6 24-5z" fill="#840929"/>
<path transform="translate(584)" d="m0 0h52l2 1 21 3 27 7 23 9 22 12 11 7 14 10 1 2-6 9-13 19-11 16-7 10-8 11-4-1-9-6-23-13-21-9-15-5-16-3h-10l-2-1-20 1-11 3-10 5-7 6-5 9-1 4v13l4 12 6 7 10 6 20 8 70 20 25 9 21 10 11 7 5 2v2h2l-2 5-9 11-13 16-13 15-10 11-7 8-4 3-11-7-18-8-21-7-49-13-30-10-25-12-14-10-10-9-8-9-8-14-6-15-3-15-1-17-1-4 3-26 6-20 10-19 9-12 12-12 12-9 16-9 18-7 21-5z" fill="#840929"/>
<path transform="translate(1758,509)" d="m0 0 5 2 11 9 6 5-1 4-11 13-5 6h-2l2 5 10 14 6 12 4 13 1 6v21l-3 15-5 14-6 10-8 10-13 10-15 8 12 4 11 6 11 9 9 13 5 13 1 5v17l-4 15-6 12-8 10-8 7-13 8-15 6-9 3-11 2h-43l-19-4-15-6-11-7-12-11-9-13-5-13-2-9-1-13 1-1h29l3 15 6 12 6 7 11 7 13 5 16 3h22l16-3 14-5 11-7 6-8 4-9 1-5v-12l-4-11-6-8-7-6-14-7-17-4-38-3-19-5-16-8-10-7-9-8-9-13-7-15-4-16-1-7v-19l3-17 6-16 10-16 12-12 15-10 14-6 19-5 7-1h22l17 3 15 5 7 4h4l11-14z" fill="#4E4F50"/>
<path transform="translate(1132,520)" d="m0 0h30l16 3 15 6 14 9 10 9 8 9 8 14 5 12 4 15 1 6v24l-4 19-5 13-6 11-8 10-5 6-12 9-8 5-14 6-16 4-6 1h-23l-16-3-14-5-10-5-10-7-10-9-9-11-8-15-5-16-2-10v-28l4-18 5-13 8-14 11-12 10-9 16-9 15-5z" fill="#4E4F50"/>
<path transform="translate(1447,520)" d="m0 0h30l15 3 13 5 14 8 13 11 8 10 8 14 5 12 3 12 1 7v25l-3 17-4 12-7 13-9 12-8 8-15 10-16 7-16 4-6 1h-24l-18-4-13-5-14-8-13-11-10-13-8-16-5-16-2-11v-22l4-20 6-15 7-12 8-10 7-7 13-9 14-7 15-4z" fill="#4E4F50"/>
<path transform="translate(909,200)" d="m0 0h2v10l3 24 5 17 7 16 11 18 10 11 5 5 8 7 10 7 14 6 18 5 11 2 11 1h13l15-2 9-2 5 1 9 10 13 17 14 17 16 20v2l-8 4-21 7-23 5-22 3h-36l-24-3-24-6-19-7-17-8-18-11-14-11-10-9-6-5-7-8-8-9-10-14-9-15-7-16 3-6 9-10 11-14 10-11 8-10 13-15 7-9 12-13z" fill="#840929"/>
<path transform="translate(270,520)" d="m0 0h32l15 3 13 5 11 6 9 7 6 5 8 11 8 16 4 14 2 13v27l-1 1h-156l4 15 6 12 9 10 9 7 13 6 12 3 9 1h10l17-3 15-5 11-6 9-8 4 2 10 9 7 6-2 4-10 9-14 9-15 6-15 4-12 2h-23l-21-4-17-7-12-8-12-11-9-12-8-16-5-18-1-6v-28l4-18 7-16 9-14 7-8 11-9 14-8 13-5z" fill="#4E4F50"/>
<path transform="translate(613,447)" d="m0 0h29l1 1v100l-1 3 5-4 5-6 13-10 13-6 13-3 8-1h15l18 3 12 5 10 6 10 9 8 11 5 11 3 9 3 18v114l-1 1h-28l-1-1v-66l-1-45-4-16-6-12-9-9-13-6-12-2h-13l-14 3-14 7-10 9-8 13-4 11-1 7-1 106-2 1h-28l-1-4v-233z" fill="#4E4F50"/>
<path transform="translate(1809,524)" d="m0 0h34l5 11 11 30 18 47 11 29 10 27v2h2l3-9 16-42 18-42 19-45 4-8h32l-1 6-14 33-13 30-33 77-13 30-11 26-13 30-12 28-5 11h-33l4-10 15-35 17-40 1-8-15-36-15-37-16-39-19-46-7-17z" fill="#4E4F50"/>
<path transform="translate(1450,548)" d="m0 0h24l12 3 14 8 10 9 7 9 6 13 3 10 1 7v17l-3 14-5 12-8 11-8 8-14 8-13 4-6 1h-16l-15-3-16-8-11-10-7-10-5-11-3-14v-22l4-16 6-12 8-10 11-9 12-6z" fill="#FDFDFD"/>
<path transform="translate(1136,548)" d="m0 0h23l12 3 12 6 10 8 7 8 6 10 5 15 2 13-1 16-4 16-7 13-9 10-11 8-15 6-11 2h-15l-15-3-10-4-11-8-8-8-8-14-4-11-2-15 1-17 4-15 7-13 11-12 10-7 12-5z" fill="#FDFDFD"/>
<path transform="translate(917,521)" d="m0 0h24l16 4 12 5 11 7 10 9 7 10 7 14 4 13 2 14v110l-1 1h-29l-1-98-1-16-5-16-5-9-5-6-9-6-8-4-7-2-8-1h-14l-10 2-12 5-10 8-8 10-7 15-2 11-1 106-1 1h-29v-185h28l2 27 10-10 11-8 16-8z" fill="#4E4F50"/>
<path transform="translate(1681,547)" d="m0 0h14l16 3 11 5 11 7 9 9 7 12 4 13 1 5v18l-4 16-7 13-9 10-13 9-13 5-11 2h-21l-16-4-12-6-9-7-7-8-5-9-4-10-2-10v-21l3-12 6-12 11-12 10-7 11-5 11-3z" fill="#FDFDFD"/>
<path transform="translate(0,447)" d="m0 0h210v28l-5 1h-84v231l-1 1h-30l-1-1v-231h-89z" fill="#4E4F50"/>
<path transform="translate(495,520)" d="m0 0h18l14 2 17 6 15 9 11 9-1 5-16 16-4-1-8-6-12-6-11-3-15-1-16 2-16 6-13 10-8 10-6 13-3 12-1 17 2 14 4 12 7 12 10 10 12 7 16 5 9 1h10l16-3 12-5 13-9h4l17 17-1 4-11 9-14 8-12 5-18 4h-23l-20-4-15-6-14-8-13-12-9-12-7-14-5-17-2-16v-13l3-21 6-17 8-14 11-12 9-8 16-9 15-5z" fill="#4E4F50"/>
<path transform="translate(1290,447)" d="m0 0h29l1 1v259l-3 1h-27l-1-1v-259z" fill="#4E4F50"/>
<path transform="translate(280,547)" d="m0 0h14l16 3 12 5 9 7 9 10 5 11 3 12v7h-126l-1-4 4-13 6-11 9-10 7-6 16-8z" fill="#FDFDFD"/>
<path transform="translate(1329,194)" d="m0 0 3 1 9 11 4 3v2l4 2 7 6v3h-26l-2-2v-24z" fill="#FDFDFD"/>
<path transform="translate(1332,189)" d="m0 0h27l1 4v22l-2 2-25-25z" fill="#FDFDFD"/>
</svg>
